# xmcd
#
# Track frame offsets: 
#        150
#        21327
#        34865
#        55181
#        75244
#        91912
#        109537
#        123468
#        136787
#        152441
#        166407
#        185967
#        203931
#
# Disc length: 2926 seconds
#
# Revision: 0
# Processed by: cddbd v1.5.2PL0 Copyright (c) Steve Scherf et al.
# Submitted via: ExactAudioCopyFreeDBPlugin 1.0
#
DISCID=a20b6c0d
DTITLE=Byron Thorne - House of Blue Light
DYEAR=2003
DGENRE=Blues
TTITLE0=Let the Good Times Roll
TTITLE1=The House of Blue Light
TTITLE2=Blue Light Boogie
TTITLE3=Good Rockin' Tonight
TTITLE4=9 Degrees Below Zero
TTITLE5=Night Train
TTITLE6=Rocket 88
TTITLE7=Shake Rattle and Roll
TTITLE8=Why Don't You Do Right
TTITLE9=It's All the Same
TTITLE10=Down the Road a Piece
TTITLE11=St. Louis Blues
TTITLE12=Stormy Monday
EXTD=
EXTT0=
EXTT1=
EXTT2=
EXTT3=
EXTT4=
EXTT5=
EXTT6=
EXTT7=
EXTT8=
EXTT9=
EXTT10=
EXTT11=
EXTT12=
PLAYORDER=
